<svg xmlns="http://www.w3.org/2000/svg" viewBox="0 0 24 24" fill="currentColor"><path d="M17.813 4.653h.854c1.51.054 2.769.578 3.773 1.574 1.004.995 1.524 2.249 1.56 3.76v7.36c-.036 1.51-.556 2.769-1.56 3.773s-2.262 1.524-3.773 1.56H5.333c-1.51-.036-2.769-.556-3.773-1.56S.036 18.858 0 17.347v-7.36c.036-1.511.556-2.765 1.56-3.76 1.004-.996 2.262-1.52 3.773-1.574h.774l-1.174-1.12a1.234 1.234 0 01-.415-.906 1.227 1.227 0 011.067-1.227 1.212 1.212 0 01.96.436l2.173 2.12h7.12l2.156-2.12a1.212 1.212 0 01.96-.436 1.227 1.227 0 011.067 1.227 1.234 1.234 0 01-.415.906zM5.333 7.24c-.746.018-1.373.276-1.88.773-.506.498-.769 1.13-.786 1.894v7.52c.017.764.28 1.395.786 1.893.507.498 1.134.756 1.88.773h12.854c.746-.017 1.373-.275 1.88-.773.506-.498.769-1.129.786-1.893v-7.52c-.017-.764-.28-1.396-.786-1.894-.507-.497-1.134-.755-1.88-.773zM8.4 12.907l2.907 1.96V10.96zm6.747 1.96l2.906-1.96V10.96z"/></svg>