<svg xmlns="http://www.w3.org/2000/svg" viewBox="0 0 24 24" fill="currentColor"><path d="M23.193 7.879c0-5.206-3.411-6.732-3.411-6.732C18.062.238 15.657.017 13.129 0h-.129c-2.528.017-4.933.238-6.653 1.107 0 0-3.411 1.526-3.411 6.732 0 1.192-.023 2.618.015 4.129.124 5.092.934 10.109 5.641 11.321 2.174.574 4.034.695 5.535.612 2.722-.15 4.25-.972 4.25-.972l-.09-1.975s-1.945.613-4.129.539c-2.165-.074-4.449-.233-4.804-2.89-.049-.388-.078-.794-.078-1.213 0 0 2.666.649 6.015.735 1.889.049 3.666-.062 5.459-.228 3.439-.359 6.418-2.212 6.815-3.906.588-2.572.535-6.279.535-6.279zm-4.059 4.722h-2.497V8.469c0-1.29-.525-1.944-1.573-1.944-1.16 0-1.739.751-1.739 2.228v3.236H9.928V8.785c0-1.477-.58-2.228-1.74-2.228-1.047 0-1.572.655-1.572 1.944v4.132H4.119V8.367c0-1.29.33-2.316.992-3.078.682-.762 1.574-1.146 2.676-1.146 1.28 0 2.25.49 2.892 1.469l.622 1.043.622-1.043c.642-.979 1.612-1.469 2.892-1.469 1.102 0 1.994.384 2.676 1.146.662.762.992 1.788.992 3.078v4.234z"/></svg>