<svg xmlns="http://www.w3.org/2000/svg" viewBox="0 0 24 24" fill="currentColor"><path d="M8.691 2.188C3.891 2.188 0 5.476 0 9.53c0 2.212 1.17 4.203 3.002 5.55a.59.59 0 01.213.665l-.39 1.48c-.019.07-.048.141-.048.213 0 .163.13.295.29.295a.326.326 0 00.167-.054l1.903-1.114a.864.864 0 01.717-.098 10.16 10.16 0 002.837.403c.276 0 .543-.027.811-.05-.857-2.578.157-4.972 1.932-6.446 1.703-1.415 3.882-1.98 5.853-1.838-.576-3.583-4.196-6.348-8.596-6.348zM5.785 5.991c.642 0 1.162.529 1.162 1.18a1.17 1.17 0 01-1.162 1.178A1.17 1.17 0 014.623 7.17c0-.651.52-1.18 1.162-1.18zm5.813 0c.642 0 1.162.529 1.162 1.18a1.17 1.17 0 01-1.162 1.178 1.17 1.17 0 01-1.162-1.178c0-.651.52-1.18 1.162-1.18zm5.34 3.24c-4.409 0-7.997 3.176-7.997 7.077 0 .691.119 1.354.338 1.973a.588.588 0 01-.213.665l-.39 1.48a.294.294 0 00-.048.213c0 .163.13.295.29.295a.326.326 0 00.167-.054l1.903-1.114a.864.864 0 01.717-.098 9.5 9.5 0 003.233.567c4.409 0 7.997-3.176 7.997-7.077 0-3.9-3.588-7.077-7.997-7.077zm-3.23 3.658c.535 0 .969.44.969.983a.976.976 0 01-.969.983.976.976 0 01-.969-.983c0-.543.434-.983.969-.983zm4.844 0c.535 0 .969.44.969.983a.976.976 0 01-.969.983.976.976 0 01-.969-.983c0-.543.434-.983.969-.983z"/></svg>